Coordinates
version=1
nRows=9
nColumns=36
inDegrees=yes

Units are S.I. units (second, meters, Newtons, ...)
If the header above contains a line with 'inDegrees', this indicates whether rotational values are in degrees (yes) or radians (no).

endheader
time	pelvis_tilt	pelvis_list	pelvis_rotation	pelvis_tx	pelvis_ty	pelvis_tz	hip_flexion_r	hip_adduction_r	hip_rotation_r	knee_angle_r	knee_angle_r_beta	ankle_angle_r	subtalar_angle_r	mtp_angle_r	hip_flexion_l	hip_adduction_l	hip_rotation_l	knee_angle_l	knee_angle_l_beta	ankle_angle_l	subtalar_angle_l	mtp_angle_l	lumbar_extension	lumbar_bending	lumbar_rotation	arm_flex_r	arm_add_r	arm_rot_r	elbow_flex_r	pro_sup_r	arm_flex_l	arm_add_l	arm_rot_l	elbow_flex_l	pro_sup_l
      1.14000000	    -14.35528349	      0.04137903	     -0.02496466	     -0.71040162	      1.27948807	     -0.58646259	      8.73582297	     -2.23517872	     -0.75880422	     34.43082413	      0.60093125	    -23.26354951	     -9.69393412	     -5.98708384	     12.53021421	     -0.65982320	      4.14709705	     38.93950280	      0.67962253	    -25.78193058	     -8.33336059	     -5.98708384	      6.04002051	      1.70289876	     -2.75817677	      9.83779879	    -14.67206181	      1.34603620	     57.06288639	    109.45991530	      6.09471778	    -15.00558445	     -4.80352111	     52.52181330	    107.16160436
      1.15000000	    -14.47534902	     -0.11085948	      0.00402028	     -0.70164569	      1.28259420	     -0.58715604	     10.66241975	     -2.14127900	     -0.56313703	     37.55996769	      0.65554510	    -23.07062203	    -10.37780811	     -6.00847472	     14.47012567	     -0.88698350	      4.04399679	     41.69187046	      0.72766041	    -25.66652056	     -9.81965200	     -6.00847472	      5.67286392	      1.93617250	     -2.97788714	      9.52946958	    -14.81511491	      1.45370040	     56.75011565	    109.42528302	      5.38364388	    -15.41950153	     -4.42304610	     52.29310532	    107.18970098
      1.16000000	    -14.77123941	     -0.26440931	      0.06276221	     -0.69326061	      1.28440116	     -0.58790615	     12.82981800	     -2.03919368	     -0.41342944	     40.53389666	      0.70744996	    -22.51678262	    -11.11722562	     -6.03306287	     16.60765354	     -1.07490325	      4.14907118	     44.16020742	      0.77074102	    -25.40041144	    -11.57813844	     -6.03306287	      5.39241552	      2.16173300	     -3.18511057	      9.16570280	    -15.00319437	      1.67213493	     56.23273167	    109.39967181	      4.70369562	    -15.66097262	     -4.42755869	     51.81564840	    107.09494883
      1.17000000	    -15.01416371	     -0.35314555	      0.07951012	     -0.68493952	      1.28524262	     -0.58865325	     14.87067386	     -2.03006818	     -0.39882191	     43.01557486	      0.75076341	    -21.87694721	    -11.67445697	     -6.06033835	     18.59387025	     -1.26073023	      4.13795033	     46.05414012	      0.80379638	    -25.22858129	    -12.76199761	     -6.06033835	      4.96182348	      2.29273461	     -3.42805881	      8.82698274	    -15.12479990	      1.88277607	     55.43510051	    109.35963738	      3.95033820	    -15.91646665	     -4.54962709	     51.14725572	    106.93999975
      1.18000000	    -15.13288480	     -0.38642613	      0.07316023	     -0.67660810	      1.28536062	     -0.58947855	     16.65427640	     -2.11591887	     -0.49165630	     44.86216068	      0.78299241	    -21.16468354	    -12.15087050	     -6.08301065	     20.31236628	     -1.48832868	      3.91034198	     47.33662574	      0.82617998	    -24.93103527	    -13.21539640	     -6.08301065	      4.30475737	      2.36857813	     -3.66055619	      8.39968431	    -15.20481873	      1.98463270	     54.42026284	    109.29230686	      3.19133347	    -16.17283582	     -4.54073642	     50.34914744	    106.83134048
      1.19000000	    -15.24562496	     -0.38819619	     -0.00896001	     -0.66840754	      1.28468198	     -0.59017924	     18.30630486	     -2.30728759	     -0.85247645	     46.02878178	      0.80335379	    -20.20849297	    -12.67791816	     -6.10426800	     21.91028474	     -1.76614807	      3.51635478	     48.07156853	      0.83900715	    -24.40224695	    -13.15491970	     -6.10426800	      3.55518372	      2.38627094	     -3.75975612	      7.86078644	    -15.21838483	      2.00096949	     53.18312586	    109.19909387	      2.42465514	    -16.33728752	     -4.64072018	     49.35800177	    106.74320881
      1.20000000	    -15.27710438	     -0.41049344	     -0.01548378	     -0.66035076	      1.28337880	     -0.59095407	     19.69482711	     -2.53318365	     -1.36179771	     46.51877854	      0.81190585	    -19.12877594	    -13.24608161	     -6.12210006	     23.32078440	     -2.07178308	      3.15103796	     48.20446140	      0.84132657	    -23.80102175	    -12.64781719	     -6.12210006	      2.59920096	      2.43023321	     -3.85657022	      7.21126685	    -15.20009889	      1.78661989	     51.79073308	    109.09924894	      1.65535157	    -16.37764097	     -5.05534609	     48.23704884	    106.60941347
      1.21000000	    -15.32938069	     -0.43332625	     -0.08697434	     -0.65221439	      1.28137773	     -0.59148125	     20.92055037	     -2.71779805	     -1.78598842	     46.30020179	      0.80809097	    -17.95770236	    -13.70655808	     -6.14268480	     24.54055388	     -2.44141591	      2.72773805	     47.59543778	      0.83069710	    -23.07158913	    -11.62916525	     -6.14268480	      1.61144448	      2.44282487	     -3.89921739	      6.53563104	    -15.00434611	      1.32368546	     50.00831392	    108.99416818	      0.73104523	    -16.29000243	     -5.83241214	     46.91941101	    106.39680177
      1.22000000	    -15.18947452	     -0.44806114	     -0.30463674	     -0.64413427	      1.27878680	     -0.59172194	     21.86876160	     -2.85991154	     -2.08285311	     45.55935610	      0.79516077	    -17.02524191	    -13.92499210	     -6.16963227	     25.36351560	     -2.90377944	      2.10673767	     46.39751042	      0.80978932	    -22.20148818	    -10.33774416	     -6.16963227	      0.27041654	      2.44465515	     -3.89915186	      5.93676598	    -14.74131464	      0.92266005	     47.98360143	    108.87832654	     -0.34707098	    -16.11960818	     -6.66581525	     45.64017511	    106.26988164
